<svg width="27" height="26" viewBox="0 0 27 26" fill="none" xmlns="http://www.w3.org/2000/svg">
<path d="M1.88159 4.47166H9.4063V1.78866C9.40724 1.31467 9.60571 0.859453 9.95843 0.524078C10.3102 0.189598 10.789 0.000894693 11.2875 0H24.4557C24.9542 0.000894693 25.433 0.188704 25.7857 0.524078C26.1384 0.859453 26.336 1.31467 26.3369 1.78866V23.2526C26.336 23.7266 26.1375 24.1818 25.7857 24.5163C25.433 24.8517 24.9542 25.0404 24.4557 25.0413H1.88159C1.38307 25.0404 0.905254 24.8517 0.552533 24.5163C0.199812 24.1809 0.00134771 23.7266 0.000406742 23.2526V6.26032C0.00134771 5.78632 0.199812 5.33111 0.552533 4.99573C0.904314 4.66125 1.38307 4.47255 1.88159 4.47166ZM15.9904 23.2526H19.7528V18.781H15.9904V23.2526ZM11.2875 23.2526H14.1092V18.781C14.1102 18.307 14.3087 17.8517 14.6614 17.5173C15.0132 17.1819 15.4919 16.9932 15.9904 16.9923H19.7528C20.2513 16.9932 20.7301 17.1819 21.0828 17.5173C21.4346 17.8517 21.633 18.307 21.634 18.781V23.2526H24.4557L24.4567 1.78866H11.2875V23.2526ZM1.88159 23.2526H9.4063V6.26032H1.88159V23.2526ZM14.1092 12.5206C14.1092 12.6977 14.1647 12.8703 14.2682 13.0179C14.3707 13.1646 14.5184 13.279 14.6896 13.347C14.8617 13.415 15.0508 13.432 15.2333 13.398C15.4157 13.3631 15.5832 13.2781 15.7148 13.1529C15.8465 13.0277 15.9359 12.8685 15.9726 12.695C16.0083 12.5215 15.9904 12.3418 15.9189 12.1781C15.8475 12.0153 15.7271 11.8749 15.5728 11.7774C15.4176 11.6791 15.2361 11.6263 15.0498 11.6263C14.8006 11.6263 14.5607 11.7202 14.3848 11.8883C14.208 12.0556 14.1092 12.2836 14.1092 12.5206ZM14.1092 8.94331C14.1092 9.12039 14.1647 9.29299 14.2682 9.44056C14.3707 9.58723 14.5184 9.7017 14.6896 9.76967C14.8617 9.83764 15.0508 9.85463 15.2333 9.82065C15.4157 9.78577 15.5832 9.70081 15.7148 9.5756C15.8465 9.4504 15.9359 9.29121 15.9726 9.11771C16.0083 8.94421 15.9904 8.76445 15.9189 8.60078C15.8475 8.43801 15.7271 8.2976 15.5728 8.20012C15.4176 8.10175 15.2361 8.04898 15.0498 8.04898C14.8006 8.04898 14.5607 8.14288 14.3848 8.31102C14.208 8.47826 14.1092 8.70631 14.1092 8.94331ZM14.1092 5.36599C14.1092 5.54306 14.1647 5.71567 14.2682 5.86323C14.3707 6.0099 14.5184 6.12438 14.6896 6.19235C14.8617 6.26032 15.0508 6.27731 15.2333 6.24333C15.4157 6.20845 15.5832 6.12349 15.7148 5.99828C15.8465 5.87307 15.9359 5.71388 15.9726 5.54038C16.0083 5.36688 15.9904 5.18712 15.9189 5.02346C15.8475 4.86069 15.7271 4.72028 15.5728 4.6228C15.4176 4.52442 15.2361 4.47166 15.0498 4.47166C14.8006 4.47166 14.5607 4.56556 14.3848 4.73369C14.208 4.90093 14.1092 5.12899 14.1092 5.36599ZM19.7528 12.5206C19.7528 12.6977 19.8083 12.8703 19.9117 13.0179C20.0143 13.1646 20.1619 13.279 20.3331 13.347C20.5053 13.415 20.6943 13.432 20.8768 13.398C21.0593 13.3631 21.2267 13.2781 21.3584 13.1529C21.4901 13.0277 21.5794 12.8685 21.6161 12.695C21.6518 12.5215 21.634 12.3418 21.5625 12.1781C21.491 12.0153 21.3706 11.8749 21.2163 11.7774C21.0611 11.6791 20.8796 11.6263 20.6934 11.6263C20.4441 11.6263 20.2043 11.7202 20.0284 11.8883C19.8515 12.0556 19.7528 12.2836 19.7528 12.5206ZM19.7528 8.94331C19.7528 9.12039 19.8083 9.29299 19.9117 9.44056C20.0143 9.58723 20.1619 9.7017 20.3331 9.76967C20.5053 9.83764 20.6943 9.85463 20.8768 9.82065C21.0593 9.78577 21.2267 9.70081 21.3584 9.5756C21.4901 9.4504 21.5794 9.29121 21.6161 9.11771C21.6518 8.94421 21.634 8.76445 21.5625 8.60078C21.491 8.43801 21.3706 8.2976 21.2163 8.20012C21.0611 8.10175 20.8796 8.04898 20.6934 8.04898C20.4441 8.04898 20.2043 8.14288 20.0284 8.31102C19.8515 8.47826 19.7528 8.70631 19.7528 8.94331ZM19.7528 5.36599C19.7528 5.54306 19.8083 5.71567 19.9117 5.86323C20.0143 6.0099 20.1619 6.12438 20.3331 6.19235C20.5053 6.26032 20.6943 6.27731 20.8768 6.24333C21.0593 6.20845 21.2267 6.12349 21.3584 5.99828C21.4901 5.87307 21.5794 5.71388 21.6161 5.54038C21.6518 5.36688 21.634 5.18712 21.5625 5.02346C21.491 4.86069 21.3706 4.72028 21.2163 4.6228C21.0611 4.52442 20.8796 4.47166 20.6934 4.47166C20.4441 4.47166 20.2043 4.56556 20.0284 4.73369C19.8515 4.90093 19.7528 5.12899 19.7528 5.36599Z" fill="#1A1603"/>
</svg>
