<svg width="30" height="26" viewBox="0 0 30 26" fill="none" xmlns="http://www.w3.org/2000/svg">
<path d="M25.5702 8.72308V2.38675H26.5107V10.5117V10.6969L26.6481 10.8283L28.8622 12.9327L28.1972 13.5659L27.3131 12.7252L26.5107 11.9606V13.0409V13.5659C26.5107 14.1383 26.285 14.6597 25.9125 15.0558L25.6313 15.3537L25.9116 15.6524C26.2549 16.0164 26.4731 16.4868 26.506 17.0046L26.5107 17.1495V18.0375C26.5107 18.6099 26.285 19.1313 25.9125 19.5275L25.6313 19.8253L25.9116 20.124C26.2549 20.488 26.4731 20.9584 26.506 21.4762L26.5107 21.6211V22.5092C26.5107 23.6978 25.5354 24.6699 24.3041 24.7406L24.1527 24.745H5.34748C4.09744 24.745 3.07501 23.8176 3.00071 22.6469L2.99601 22.502V21.6149C2.99601 21.0416 3.22175 20.5202 3.59422 20.124L3.87546 19.8262L3.59422 19.5275C3.25185 19.1635 3.03363 18.6931 3.00071 18.1753L2.99601 18.0304V17.1432C2.99601 16.5699 3.22175 16.0486 3.59422 15.6524L3.87546 15.3545L3.59422 15.0558C3.26125 14.7017 3.04492 14.2465 3.00353 13.7439L2.99601 13.5569V13.0409V11.9615L2.19274 12.7252L1.30953 13.5659L0.644531 12.9336L13.0904 1.09891C13.9699 0.262711 15.3742 0.227832 16.2969 0.99338L16.421 1.10428L24.7669 9.03968L25.5702 9.80254V8.72308ZM10.5207 20.7196V20.2725H10.0504L5.34748 20.2734C4.62322 20.2734 4.02783 20.7912 3.946 21.4584L3.94412 21.4718L3.94318 21.4843L3.93754 21.5889L3.93659 21.6015V21.6149V22.5092C3.93659 23.1969 4.4812 23.7639 5.18382 23.8418L5.19699 23.8426L5.21015 23.8435L5.3202 23.8498L5.33337 23.8507H5.34748H10.0504H10.5207V23.4035V20.7196ZM18.0454 15.3545V14.9074H17.5751H11.9316H11.4613V15.3545V23.4035V23.8507H11.9316H17.5751H18.0454V23.4035V15.3545ZM24.1865 20.2734H24.1724H24.1593L19.4563 20.2725H18.986V20.7196V23.4035V23.8507H19.4563H24.1593C24.8826 23.8507 25.4789 23.332 25.5607 22.6648L25.5617 22.6523L25.5626 22.6389L25.5692 22.5342L25.5702 22.5217V22.5092V21.6149C25.5702 20.9262 25.0256 20.3592 24.3229 20.2823L24.3098 20.2805L24.2957 20.2796L24.1865 20.2734ZM24.1865 15.8017H24.1724H24.1593L19.4563 15.8008H18.986V16.248V18.931V19.3781H19.4563L24.1593 19.379C24.8826 19.379 25.4789 18.8603 25.5607 18.1932L25.5617 18.1806L25.5626 18.1672L25.5692 18.0626L25.5702 18.0501V18.0375V17.1432C25.5702 16.4546 25.0256 15.8876 24.3229 15.8107L24.3098 15.8089L24.2957 15.808L24.1865 15.8017ZM10.5207 16.248V15.8008H10.0504L5.34748 15.8017C4.62322 15.8017 4.02783 16.3195 3.946 16.9867L3.94412 17.0001L3.94318 17.0126L3.93754 17.1173L3.93659 17.1298V17.1432V18.0375C3.93659 18.7253 4.4812 19.2923 5.18382 19.3701L5.19699 19.371L5.21015 19.3719L5.3202 19.3781L5.33337 19.379H5.34748L10.0504 19.3781H10.5207V18.931V16.248ZM3.946 12.515L3.94412 12.5285L3.94318 12.541L3.93754 12.6456L3.93659 12.6581V12.6716V13.5659C3.93659 14.2536 4.4812 14.8206 5.18382 14.8984L5.19699 14.8993L5.21015 14.9002L5.3202 14.9065L5.33337 14.9074H5.34748L10.3025 14.9065H10.5734L10.7088 14.6829C10.9365 14.3109 11.3447 14.0524 11.8178 14.0166L11.9401 14.0131H17.5751C18.0962 14.0131 18.5524 14.2814 18.797 14.6838L18.9334 14.9065H19.2042L24.1593 14.9074C24.8826 14.9074 25.4789 14.3887 25.5607 13.7215L25.5617 13.709L25.5626 13.6956L25.5692 13.5909L25.5702 13.5784V13.5659V12.6716C25.5702 11.9302 24.9381 11.3301 24.1593 11.3301H5.34748C4.62322 11.3301 4.02783 11.8479 3.946 12.515ZM21.2801 6.98808L21.1428 6.85751H20.9481H8.55865H8.36395L8.22568 6.98808L5.40392 9.67107L4.60159 10.4348H5.73688H23.7699H24.9052L24.1019 9.67107L21.2801 6.98808ZM13.888 1.62031L13.8767 1.62925L13.8655 1.63819L13.777 1.71242L13.7658 1.72137L13.7554 1.7312L10.1069 5.19942L9.3036 5.96318H10.4398H19.0669H20.2022L19.3989 5.19942L15.7504 1.7312C15.2415 1.24737 14.442 1.2107 13.888 1.62031Z" fill="#1A1603"/>
<path d="M25.5702 8.72308V2.38675H26.5107V10.5117V10.6969L26.6481 10.8283L28.8622 12.9327L28.1972 13.5659L27.3131 12.7252L26.5107 11.9606V13.0409V13.5659C26.5107 14.1383 26.285 14.6597 25.9125 15.0558L25.6313 15.3537L25.9116 15.6524C26.2549 16.0164 26.4731 16.4868 26.506 17.0046L26.5107 17.1495V18.0375C26.5107 18.6099 26.285 19.1313 25.9125 19.5275L25.6313 19.8253L25.9116 20.124C26.2549 20.488 26.4731 20.9584 26.506 21.4762L26.5107 21.6211V22.5092C26.5107 23.6978 25.5354 24.6699 24.3041 24.7406L24.1527 24.745H5.34748C4.09744 24.745 3.07501 23.8176 3.00071 22.6469L2.99601 22.502V21.6149C2.99601 21.0416 3.22175 20.5202 3.59422 20.124L3.87546 19.8262L3.59422 19.5275C3.25185 19.1635 3.03363 18.6931 3.00071 18.1753L2.99601 18.0304V17.1432C2.99601 16.5699 3.22175 16.0486 3.59422 15.6524L3.87546 15.3545L3.59422 15.0558C3.26125 14.7017 3.04492 14.2465 3.00353 13.7439L2.99601 13.5569V13.0409V11.9615L2.19274 12.7252L1.30953 13.5659L0.644531 12.9336L13.0904 1.09891C13.9699 0.262711 15.3742 0.227832 16.2969 0.99338L16.421 1.10428L24.7669 9.03968L25.5702 9.80254V8.72308ZM10.5207 20.7196V20.2725H10.0504L5.34748 20.2734C4.62322 20.2734 4.02783 20.7912 3.946 21.4584L3.94412 21.4718L3.94318 21.4843L3.93754 21.5889L3.93659 21.6015V21.6149V22.5092C3.93659 23.1969 4.4812 23.7639 5.18382 23.8418L5.19699 23.8426L5.21015 23.8435L5.3202 23.8498L5.33337 23.8507H5.34748H10.0504H10.5207V23.4035V20.7196ZM18.0454 15.3545V14.9074H17.5751H11.9316H11.4613V15.3545V23.4035V23.8507H11.9316H17.5751H18.0454V23.4035V15.3545ZM24.1865 20.2734H24.1724H24.1593L19.4563 20.2725H18.986V20.7196V23.4035V23.8507H19.4563H24.1593C24.8826 23.8507 25.4789 23.332 25.5607 22.6648L25.5617 22.6523L25.5626 22.6389L25.5692 22.5342L25.5702 22.5217V22.5092V21.6149C25.5702 20.9262 25.0256 20.3592 24.3229 20.2823L24.3098 20.2805L24.2957 20.2796L24.1865 20.2734ZM24.1865 15.8017H24.1724H24.1593L19.4563 15.8008H18.986V16.248V18.931V19.3781H19.4563L24.1593 19.379C24.8826 19.379 25.4789 18.8603 25.5607 18.1932L25.5617 18.1806L25.5626 18.1672L25.5692 18.0626L25.5702 18.0501V18.0375V17.1432C25.5702 16.4546 25.0256 15.8876 24.3229 15.8107L24.3098 15.8089L24.2957 15.808L24.1865 15.8017ZM10.5207 16.248V15.8008H10.0504L5.34748 15.8017C4.62322 15.8017 4.02783 16.3195 3.946 16.9867L3.94412 17.0001L3.94318 17.0126L3.93754 17.1173L3.93659 17.1298V17.1432V18.0375C3.93659 18.7253 4.4812 19.2923 5.18382 19.3701L5.19699 19.371L5.21015 19.3719L5.3202 19.3781L5.33337 19.379H5.34748L10.0504 19.3781H10.5207V18.931V16.248ZM3.946 12.515L3.94412 12.5285L3.94318 12.541L3.93754 12.6456L3.93659 12.6581V12.6716V13.5659C3.93659 14.2536 4.4812 14.8206 5.18382 14.8984L5.19699 14.8993L5.21015 14.9002L5.3202 14.9065L5.33337 14.9074H5.34748L10.3025 14.9065H10.5734L10.7088 14.6829C10.9365 14.3109 11.3447 14.0524 11.8178 14.0166L11.9401 14.0131H17.5751C18.0962 14.0131 18.5524 14.2814 18.797 14.6838L18.9334 14.9065H19.2042L24.1593 14.9074C24.8826 14.9074 25.4789 14.3887 25.5607 13.7215L25.5617 13.709L25.5626 13.6956L25.5692 13.5909L25.5702 13.5784V13.5659V12.6716C25.5702 11.9302 24.9381 11.3301 24.1593 11.3301H5.34748C4.62322 11.3301 4.02783 11.8479 3.946 12.515ZM21.2801 6.98808L21.1428 6.85751H20.9481H8.55865H8.36395L8.22568 6.98808L5.40392 9.67107L4.60159 10.4348H5.73688H23.7699H24.9052L24.1019 9.67107L21.2801 6.98808ZM13.888 1.62031L13.8767 1.62925L13.8655 1.63819L13.777 1.71242L13.7658 1.72137L13.7554 1.7312L10.1069 5.19942L9.3036 5.96318H10.4398H19.0669H20.2022L19.3989 5.19942L15.7504 1.7312C15.2415 1.24737 14.442 1.2107 13.888 1.62031Z" stroke="#1A1603" stroke-width="0.888308"/>
</svg>
