<svg width="29" height="27" viewBox="0 0 29 27" fill="none" xmlns="http://www.w3.org/2000/svg">
<path d="M27.7551 0L28.5822 1.59906L26.3183 2.69372V24.9465C26.3183 25.8891 25.5634 26.6618 24.6058 26.7298L24.468 26.7351H4.11423C3.1391 26.7351 2.33975 26.0054 2.26944 25.0797L2.26389 24.9465V14.32L0.827101 15.014L0 13.415L2.26389 12.3212V5.27119H4.11423V11.4269L27.7551 0ZM24.468 3.58806L4.11423 13.4257V24.9465H9.66525V16.0032C9.66525 15.0605 10.4202 14.2878 11.3777 14.219L11.5156 14.2145H17.0666C18.0417 14.2145 18.8411 14.9443 18.9123 15.8699L18.917 16.0032V24.9465H24.468V3.58806ZM17.0666 16.0032H11.5156V24.9465H17.0666V16.0032ZM21.6925 8.84851C22.2032 8.84851 22.6176 9.24917 22.6176 9.74284C22.6176 10.2365 22.2032 10.6372 21.6925 10.6372C21.1818 10.6372 20.7673 10.2365 20.7673 9.74284C20.7673 9.24917 21.1818 8.84851 21.6925 8.84851Z" fill="white"/>
</svg>
